<svg width="39" height="39" viewBox="0 0 39 39" fill="none" xmlns="http://www.w3.org/2000/svg">
<path d="M7.40385 29.0385C9.03846 27.7885 10.8654 26.8029 12.8846 26.0817C14.9038 25.3606 17.0192 25 19.2308 25C21.4423 25 23.5577 25.3606 25.5769 26.0817C27.5962 26.8029 29.4231 27.7885 31.0577 29.0385C32.1795 27.7244 33.0529 26.234 33.6779 24.5673C34.3029 22.9006 34.6154 21.1218 34.6154 19.2308C34.6154 14.9679 33.117 11.3381 30.1202 8.34135C27.1234 5.34455 23.4936 3.84615 19.2308 3.84615C14.9679 3.84615 11.3381 5.34455 8.34135 8.34135C5.34455 11.3381 3.84615 14.9679 3.84615 19.2308C3.84615 21.1218 4.15865 22.9006 4.78365 24.5673C5.40865 26.234 6.28205 27.7244 7.40385 29.0385ZM19.2308 21.1538C17.3397 21.1538 15.7452 20.5048 14.4471 19.2067C13.149 17.9087 12.5 16.3141 12.5 14.4231C12.5 12.5321 13.149 10.9375 14.4471 9.63942C15.7452 8.34135 17.3397 7.69231 19.2308 7.69231C21.1218 7.69231 22.7163 8.34135 24.0144 9.63942C25.3125 10.9375 25.9615 12.5321 25.9615 14.4231C25.9615 16.3141 25.3125 17.9087 24.0144 19.2067C22.7163 20.5048 21.1218 21.1538 19.2308 21.1538ZM19.2308 38.4615C16.5705 38.4615 14.0705 37.9567 11.7308 36.9471C9.39103 35.9375 7.35577 34.5673 5.625 32.8365C3.89423 31.1058 2.52404 29.0705 1.51442 26.7308C0.504808 24.391 0 21.891 0 19.2308C0 16.5705 0.504808 14.0705 1.51442 11.7308C2.52404 9.39103 3.89423 7.35577 5.625 5.625C7.35577 3.89423 9.39103 2.52404 11.7308 1.51442C14.0705 0.504808 16.5705 0 19.2308 0C21.891 0 24.391 0.504808 26.7308 1.51442C29.0705 2.52404 31.1058 3.89423 32.8365 5.625C34.5673 7.35577 35.9375 9.39103 36.9471 11.7308C37.9567 14.0705 38.4615 16.5705 38.4615 19.2308C38.4615 21.891 37.9567 24.391 36.9471 26.7308C35.9375 29.0705 34.5673 31.1058 32.8365 32.8365C31.1058 34.5673 29.0705 35.9375 26.7308 36.9471C24.391 37.9567 21.891 38.4615 19.2308 38.4615Z" fill="black"/>
</svg>
