<svg width="40" height="40" viewBox="0 0 40 40" fill="none" xmlns="http://www.w3.org/2000/svg">
<path d="M19.5928 24.4909C22.2979 24.4909 24.4909 22.2979 24.4909 19.5927C24.4909 16.8875 22.2979 14.6945 19.5928 14.6945C16.8876 14.6945 14.6946 16.8875 14.6946 19.5927C14.6946 22.2979 16.8876 24.4909 19.5928 24.4909Z" stroke="#1E1E1E" stroke-width="3.91853" stroke-linecap="round" stroke-linejoin="round"/>
<path d="M31.6749 24.4909C31.4576 24.9833 31.3927 25.5296 31.4888 26.0592C31.5848 26.5889 31.8373 27.0776 32.2137 27.4624L32.3117 27.5604C32.6153 27.8636 32.8561 28.2238 33.0205 28.6202C33.1848 29.0166 33.2694 29.4416 33.2694 29.8707C33.2694 30.2998 33.1848 30.7247 33.0205 31.1212C32.8561 31.5176 32.6153 31.8777 32.3117 32.181C32.0084 32.4846 31.6482 32.7254 31.2518 32.8898C30.8554 33.0541 30.4305 33.1387 30.0014 33.1387C29.5722 33.1387 29.1473 33.0541 28.7509 32.8898C28.3545 32.7254 27.9943 32.4846 27.6911 32.181L27.5931 32.083C27.2083 31.7066 26.7196 31.4541 26.1899 31.3581C25.6603 31.262 25.114 31.3269 24.6215 31.5442C24.1386 31.7512 23.7268 32.0948 23.4367 32.5329C23.1466 32.9709 22.9909 33.4842 22.9888 34.0096V34.2872C22.9888 35.1532 22.6448 35.9838 22.0324 36.5962C21.42 37.2086 20.5894 37.5526 19.7234 37.5526C18.8573 37.5526 18.0267 37.2086 17.4144 36.5962C16.802 35.9838 16.4579 35.1532 16.4579 34.2872V34.1402C16.4453 33.5998 16.2704 33.0757 15.9559 32.636C15.6414 32.1963 15.2019 31.8614 14.6946 31.6748C14.2021 31.4575 13.6559 31.3927 13.1262 31.4887C12.5966 31.5847 12.1078 31.8372 11.723 32.2136L11.6251 32.3116C11.3218 32.6152 10.9617 32.8561 10.5652 33.0204C10.1688 33.1847 9.7439 33.2693 9.31477 33.2693C8.88564 33.2693 8.46072 33.1847 8.0643 33.0204C7.66788 32.8561 7.30774 32.6152 7.00447 32.3116C6.70086 32.0083 6.46 31.6482 6.29567 31.2518C6.13134 30.8554 6.04676 30.4304 6.04676 30.0013C6.04676 29.5722 6.13134 29.1472 6.29567 28.7508C6.46 28.3544 6.70086 27.9943 7.00447 27.691L7.10243 27.593C7.47883 27.2082 7.73133 26.7195 7.82737 26.1899C7.9234 25.6602 7.85857 25.1139 7.64123 24.6215C7.43426 24.1386 7.0906 23.7267 6.65256 23.4366C6.21452 23.1465 5.70121 22.9909 5.17582 22.9888H4.89826C4.03221 22.9888 3.20163 22.6447 2.58924 22.0323C1.97685 21.4199 1.63281 20.5894 1.63281 19.7233C1.63281 18.8573 1.97685 18.0267 2.58924 17.4143C3.20163 16.8019 4.03221 16.4579 4.89826 16.4579H5.0452C5.58562 16.4452 6.10974 16.2703 6.54943 15.9558C6.98911 15.6413 7.32402 15.2019 7.51061 14.6945C7.72795 14.2021 7.79278 13.6558 7.69675 13.1262C7.60071 12.5965 7.34822 12.1078 6.97181 11.723L6.87385 11.625C6.57024 11.3217 6.32939 10.9616 6.16505 10.5652C6.00072 10.1688 5.91614 9.74384 5.91614 9.31471C5.91614 8.88558 6.00072 8.46066 6.16505 8.06424C6.32939 7.66782 6.57024 7.30768 6.87385 7.00441C7.17712 6.7008 7.53726 6.45994 7.93368 6.29561C8.3301 6.13128 8.75502 6.0467 9.18415 6.0467C9.61328 6.0467 10.0382 6.13128 10.4346 6.29561C10.831 6.45994 11.1912 6.7008 11.4945 7.00441L11.5924 7.10237C11.9772 7.47877 12.4659 7.73127 12.9956 7.82731C13.5252 7.92334 14.0715 7.85851 14.564 7.64117H14.6946C15.1775 7.4342 15.5893 7.09054 15.8794 6.6525C16.1695 6.21446 16.3252 5.70115 16.3273 5.17576V4.8982C16.3273 4.03215 16.6713 3.20157 17.2837 2.58918C17.8961 1.97679 18.7267 1.63275 19.5928 1.63275C20.4588 1.63275 21.2894 1.97679 21.9018 2.58918C22.5142 3.20157 22.8582 4.03215 22.8582 4.8982V5.04514C22.8603 5.57053 23.016 6.08384 23.3061 6.52188C23.5962 6.95993 24.008 7.30358 24.4909 7.51055C24.9834 7.72789 25.5296 7.79272 26.0593 7.69669C26.5889 7.60065 27.0777 7.34816 27.4625 6.97175L27.5604 6.87379C27.8637 6.57018 28.2239 6.32932 28.6203 6.16499C29.0167 6.00066 29.4416 5.91608 29.8707 5.91608C30.2999 5.91608 30.7248 6.00066 31.1212 6.16499C31.5176 6.32932 31.8778 6.57018 32.181 6.87379C32.4847 7.17706 32.7255 7.5372 32.8898 7.93362C33.0542 8.33004 33.1388 8.75496 33.1388 9.18409C33.1388 9.61322 33.0542 10.0381 32.8898 10.4346C32.7255 10.831 32.4847 11.1911 32.181 11.4944L32.0831 11.5924C31.7067 11.9772 31.4542 12.4659 31.3581 12.9955C31.2621 13.5252 31.3269 14.0715 31.5443 14.5639V14.6945C31.7513 15.1774 32.0949 15.5893 32.533 15.8794C32.971 16.1695 33.4843 16.3252 34.0097 16.3273H34.2873C35.1533 16.3273 35.9839 16.6713 36.5963 17.2837C37.2087 17.8961 37.5527 18.7266 37.5527 19.5927C37.5527 20.4587 37.2087 21.2893 36.5963 21.9017C35.9839 22.5141 35.1533 22.8581 34.2873 22.8581H34.1403C33.6149 22.8602 33.1016 23.0159 32.6636 23.306C32.2255 23.5961 31.8819 24.008 31.6749 24.4909Z" stroke="#1E1E1E" stroke-width="3.91853" stroke-linecap="round" stroke-linejoin="round"/>
</svg>
